<?xml version="1.0" encoding="utf-8"?>
<!-- Generator: Adobe Illustrator 15.1.0, SVG Export Plug-In . SVG Version: 6.00 Build 0)  -->
<!DOCTYPE svg PUBLIC "-//W3C//DTD SVG 1.1//EN" "http://www.w3.org/Graphics/SVG/1.1/DTD/svg11.dtd">
<svg version="1.1" id="Layer_1" xmlns="http://www.w3.org/2000/svg" xmlns:xlink="http://www.w3.org/1999/xlink" x="0px" y="0px"
	 width="595.279px" height="595.281px" viewBox="0 0 595.279 595.281" enable-background="new 0 0 595.279 595.281"
	 xml:space="preserve">
<circle fill="#F15A22" cx="297.641" cy="297.64" r="297.64"/>
<path fill="#FFFFFF" d="M485.64,456.181c-1.473,0-8.094,0-8.094-4.416s0.737-5.887,4.416-8.092
	c20.602-12.51,53.707-59.602,53.707-72.844c0-119.932-120.666-144.95-158.927-146.421l-94.911-2.944
	c-54.452-1.471-130.236-4.41-130.236-75.047c0-79.468,105.953-140.541,158.188-140.541c6.625,0,13.246,2.211,22.812,8.832
	c30.904,20.602,82.406,43.409,88.293,43.409c4.995,0,14.473-10.927,23.419-19.294c7.731,4.065,9.829,5.375,14.838,8.765
	c-16.246,20.691-49.465,56.687-52.237,60.564c-35.315-15.453-97.125-58.128-133.176-58.128c-52.975,0-84.617,41.942-84.617,71.376
	c0,43.41,66.226,61.073,162.607,70.636c28.697,2.944,58.867,6.622,89.035,10.298c77.985,9.565,130.977,57.396,130.977,114.044
	C571.735,397.314,508.446,456.181,485.64,456.181z"/>
<path fill="#FFFFFF" d="M358.347,497.384c-1.472,0-4.412-0.73-10.299-3.678c-30.906-17.656-99.332-45.617-153.045-64.748
	c-37.526-13.248-64.016-22.074-69.898-22.074c-28.7,0-43.414,16.92-43.414,24.279c0,42.676,38.26,64.748,65.488,71.371
	c2.943,0.738,2.205,2.943,2.205,5.887c0,5.154-5.889,10.305-16.925,10.305c-25.751,0-78.73-44.887-78.73-78.729
	c0-42.683,53.713-61.072,86.09-61.072c22.073,0,46.358,2.205,70.638,9.563c103.01,30.906,190.569,94.917,190.569,99.333
	C401.026,495.912,364.233,497.384,358.347,497.384z"/>
<linearGradient id="SVGID_1_" gradientUnits="userSpaceOnUse" x1="123.821" y1="303.1528" x2="552.1643" y2="303.1528">
	<stop  offset="0" style="stop-color:#B5CDE3"/>
	<stop  offset="1" style="stop-color:#5085B6"/>
</linearGradient>
<path fill="url(#SVGID_1_)" d="M550.737,51.456c-3.611-2.951-75.192,7.449-135,57.634c-22.111,18.556-69.062,79.737-104.902,137.117
	c-41.237-11.942-98.574-5.948-136.305,8.767c-31.541,12.303-48.74,35.105-50.502,53.895c-0.035,0.389-0.201,2.908-0.201,2.908
	c-0.263,12.874,9.583,23.86,22.583,24.85c9.309,0.711,17.797-3.891,22.485-11.248c0,0,0.087-0.103,0.247-0.313l-0.002,0.028
	c8.291-11.676,57.175-22.826,104.95-11.75c-0.579,1.326-1.145,2.638-1.678,3.924c-4.121,9.91-6.332,31.229,8.626,43.914
	c4.968,4.212,10.95,7.001,17.232,8.322c-0.826,3.078-2.101,7.277-4.075,12.943c-12.604,36.268-33.521,80.797-44.926,104.227
	c-28.12,3.592-42.271,18.498-46.371,30.334l-0.126,0.312c-0.763,2.191-1.255,4.512-1.438,6.924
	c-0.019,0.229-0.031,0.455-0.044,0.682c-0.8,15.549,11.64,29.033,28.101,30.289c5.849,0.445,11.43-0.711,16.265-3.086l0.472-0.246
	c23.533-13.09,27.982-39.186,27.656-54.285c20.363-36.273,44.4-97.139,59.37-137.133c5.341-3.928,10.77-7.989,16.249-12.164
	c0.221,1.054,0.414,2.166,0.574,3.326c-4.28,4.488-6.955,8.602-7.971,11.258l-0.178,0.408c-0.844,2.129-1.386,4.418-1.568,6.819
	l-0.02,0.253c-0.831,12.702,8.72,23.739,21.446,24.709c4.91,0.373,9.579-0.807,13.524-3.121l0.237-0.125
	c11.131-6.896,23.134-22.844,29.614-41.595c2.511-7.261,4.152-14.438,4.991-21.233c0.012-0.101,0.025-0.201,0.038-0.301
	c0.024-0.221,0.06-0.443,0.085-0.662l-0.013-0.002c1.179-10.441,0.428-19.918-2.087-27.289
	c50.476-43.619,96.365-91.228,113.604-128.194C551.854,107.855,554.748,54.732,550.737,51.456z"/>
<path fill="#FFFFFF" d="M553.085,53.311c-0.244-1.807-1.403-3.793-3.945-3.764c-6.483,0.076-26.504,2.674-50.817,11.257
	c-21.56,7.611-53.557,21.968-83.549,47.136c-15.67,13.148-44.672,48.577-73.887,90.254c-11.141,15.891-21.474,31.458-30.732,46.243
	c-72.653-15.688-136.169,9.137-136.169,9.137c-51.234,18.675-51.654,58.103-51.657,58.169
	c-0.281,13.746,10.247,25.332,23.967,26.379c9.53,0.727,18.646-3.815,23.812-11.858c0.056-0.067,0.139-0.173,0.242-0.312
	l0.013,0.008c7.538-10.615,54.566-21.92,101.631-11.553c-0.329,0.766-13.993,28.842,8.073,47.915
	c4.593,3.97,10.274,6.759,16.348,8.281c-0.811,2.856-1.971,6.567-3.637,11.349c-12.377,35.614-33.014,79.66-44.501,103.312
	c-9.766,1.322-18.243,4.488-25.969,8.297c-22.158,10.928-22.504,31.041-22.517,31.283c-0.837,16.264,12.357,31.076,29.483,31.859
	c32.255,1.479,42.521-31.236,44.826-44.131c0.944-5.283,1.256-10.326,1.185-14.623c20.229-36.223,44.111-96.6,59.082-136.525
	c4.598-3.385,14.013-10.387,14.019-10.348c-9.635,8.295-9.644,19.187-9.644,19.187c-0.88,13.476,9.32,26.302,22.829,26.302
	c24.305,0,38.208-27.708,44.911-45.846c4.519-12.223,8.394-36.098,3.312-49.553c50.007-43.337,96.003-91.007,113.246-127.984
	c16.438-35.248,24.008-65.104,27.462-83.944C553.091,75.132,553.988,60.001,553.085,53.311z M146.523,335.13
	c-11.539-0.877-20.505-10.188-21.148-21.496c2.545,6.632,8.056,12.48,15.611,15.632c3.002,1.251,6.118,1.998,9.225,2.235
	c3.699,0.281,7.386-0.16,10.845-1.336c1.022-0.347,2-0.758,2.939-1.217C159.357,333.318,153.054,335.628,146.523,335.13z
	 M167.757,324.402l-0.127,0.17c-0.736,1.153-1.571,2.217-2.479,3.203c-1.323,0.76-2.744,1.403-4.258,1.917
	c-6.249,2.122-13.25,1.808-19.715-0.89c-7.984-3.328-13.645-9.715-15.853-16.821c0.001-0.034-0.003-0.071-0.003-0.106
	c0-0.002,0.161-2.486,0.197-2.867c1.59-16.971,17.125-39.524,48.239-52.114c2.309,5.44,7.833,24.101,3.167,44.172
	C172.969,318.091,167.805,324.345,167.757,324.402z M174.312,318.852c1.74-3.884,3.757-9.444,5.538-17.108
	c5.178-22.269-1.5-41.361-3.314-45.92c34.777-13.159,90.544-20.004,131.955-8.715c-15.204,24.457-27.379,46.663-35.278,64.502
	C233.501,302.751,191.402,308.826,174.312,318.852z M229.503,553.716c-15.489-1.135-27.47-14.062-26.716-28.715
	c0.011-0.215,0.458-8.982,3.771-12.418c-0.126,0.809-0.227,1.621-0.289,2.443c-1.336,17.52,12.185,32.891,30.139,34.262
	c4.832,0.367,9.615-0.32,14.05-1.955C248.894,548.474,242.422,554.662,229.503,553.716z M270.394,515.707
	c-2.186,9.348-7.165,21.572-18.43,30.484c-4.826,2.094-10.14,3.008-15.52,2.598c-17.68-1.348-30.992-16.479-29.678-33.725
	c0.098-1.262,0.285-2.508,0.533-3.74c3.645-5.852,9.384-11.17,16.472-15.141c6.559-3.674,28.256-11.016,47.264-8.514
	C273.699,492,271.421,511.312,270.394,515.707z M329.95,364.656c-14.426,38.25-36.112,92.697-55.006,127.701
	c-0.408-3.688-1.119-6.264-1.837-7.1l-1.023-0.518c-7.175-0.549-13.937-0.502-20.275,0.117
	c11.661-24.088,31.674-67.018,43.805-101.92c1.71-4.909,2.903-8.738,3.739-11.705l0.135-0.552c1.411-4.942,1.828-7.524,1.946-8.733
	c4.409-3.248,29.467-24.883,43.089-36.757C341.902,332.492,329.95,364.656,329.95,364.656z M403.646,349.74
	c-6.098,17.643-22.396,43.836-41.848,43.836c-11.872,0-20.838-11.271-20.062-23.104c0,0,0.64-9.847,7.105-15.322
	c0.782,4.789-1.539,22.104-1.539,22.104l3.326-3.459c5.241-5.448,11.617-11.188,18.443-16.598
	c15.02-11.904,30.051-20.57,38.554-22.352C406.692,339.785,405.363,344.771,403.646,349.74z M408.166,331.69
	c-8.844,1.41-25.019,10.521-40.956,23.153c-5.615,4.449-10.938,9.125-15.592,13.689c1.257-11.783-0.282-19.273-0.282-19.273
	s42.34-34.196,55.926-45.9C411,313.75,408.293,330.876,408.166,331.69z M429.767,100.029l0.627-0.454
	c51.465-37.243,107.652-47.865,118.519-47.036c0.495,0.037,1.122,0.576,1.222,0.927c2.127,7.578-0.646,54.032-27.897,114.279
	c-0.312,0.689-1.855,2.213-1.855,2.213c-5.31,6.827-14.974,9.669-27.198,8c-12.426-1.694-25.957-7.828-38.099-17.271
	c-12.145-9.442-21.422-21.045-26.124-32.672C424.405,116.76,424.703,106.848,429.767,100.029z M341.842,323.485
	c-14.529,12.577-41.073,35.5-42.431,36.269c0,0-0.939,3.05-2.128,7.625l-0.272,0.285c-5.578-1.418-10.755-4.026-15.003-7.629
	c-13.871-11.762-12.398-32.121-8.212-42.193c0.377-0.904,0.768-1.823,1.167-2.748l1.224-2.793
	c6.373-14.317,15.171-30.717,25.348-47.886c-1.403,14.351,6.598,32.095,21.029,45.746
	C328.604,315.873,335.199,320.333,341.842,323.485z M373.235,327.744c-8.94,7.119-33.365,25.844-36.82,28.414l-0.03-0.142
	c3.121-8.31,7.785-21.179,11.037-30.197c5.727,2.076,11.383,3.161,16.639,3.161C367.297,328.98,370.378,328.568,373.235,327.744z
	 M519.299,174.008c-17.662,36.03-61.994,81.938-110.355,123.944c0,0-14.832,12.603-26.027,21.887l-0.058-0.055
	c-0.223,0.234-0.46,0.451-0.692,0.676c-0.87,0.722-1.716,1.418-2.526,2.086c-7.891,5.55-19.515,5.824-31.556,1.434
	c1.834-5.091,3.078-8.57,3.078-8.57s-3.06,2.654-7.688,6.664c-6.706-3.088-13.407-7.574-19.535-13.369
	c-15.581-14.734-23.463-34.264-19.612-48.597l-0.173-0.046c2.135-3.524,5.48-9.03,7.392-12.091l1.651-2.634
	c36.038-57.297,82.672-117.616,103.508-135.098c2.977-2.498,5.986-4.892,9.019-7.195c-3.033,6.976-2.589,15.9,1.384,25.721
	c4.833,11.948,14.333,23.845,26.749,33.501c12.416,9.656,26.287,15.932,39.057,17.673c2.377,0.324,4.663,0.484,6.851,0.484
	C507.852,180.423,514.559,178.221,519.299,174.008z"/>
<path fill="#FFFFFF" d="M422.419,397.314c-7.355,0-9.564-1.467-9.564-9.564c0-5.147,6.619-3.678,6.619-21.336
	c0-14.719-38.26-44.885-86.088-44.885l-96.384-0.734c-150.105-1.473-158.934-50.028-158.934-67.686
	c0-42.682,12.51-44.887,16.188-44.887c0.739,0,4.416,1.472,4.416,9.565c0,43.414,65.487,77.253,119.935,77.253l130.231,0.738
	c30.172,0,115.522,11.771,115.522,55.185C464.36,381.128,431.983,397.314,422.419,397.314z"/>
</svg>
